<svg xmlns="http://www.w3.org/2000/svg" viewBox="0 0 100 100" width="100" height="100">
  <!-- Brain outline -->
  <path d="M 50 25 Q 35 25, 30 35 Q 28 45, 32 55 Q 35 65, 40 70 Q 45 75, 50 75 Q 55 75, 60 70 Q 65 65, 68 55 Q 72 45, 70 35 Q 65 25, 50 25 Z" 
        fill="#E74C3C" stroke="#C0392B" stroke-width="2" opacity="0.9"/>
  
  <!-- Brain folds/details -->
  <path d="M 40 35 Q 45 40, 50 35" fill="none" stroke="#C0392B" stroke-width="1.5"/>
  <path d="M 50 35 Q 55 40, 60 35" fill="none" stroke="#C0392B" stroke-width="1.5"/>
  <path d="M 38 45 Q 43 50, 48 45" fill="none" stroke="#C0392B" stroke-width="1.5"/>
  <path d="M 52 45 Q 57 50, 62 45" fill="none" stroke="#C0392B" stroke-width="1.5"/>
  <path d="M 42 58 Q 47 63, 52 58" fill="none" stroke="#C0392B" stroke-width="1.5"/>
  <path d="M 48 58 Q 53 63, 58 58" fill="none" stroke="#C0392B" stroke-width="1.5"/>
  
  <!-- Circuit connections -->
  <circle cx="35" cy="40" r="3" fill="#3498DB" stroke="#2874A6" stroke-width="1"/>
  <circle cx="65" cy="40" r="3" fill="#3498DB" stroke="#2874A6" stroke-width="1"/>
  <circle cx="40" cy="60" r="3" fill="#3498DB" stroke="#2874A6" stroke-width="1"/>
  <circle cx="60" cy="60" r="3" fill="#3498DB" stroke="#2874A6" stroke-width="1"/>
  <circle cx="50" cy="50" r="3" fill="#3498DB" stroke="#2874A6" stroke-width="1"/>
  
  <!-- Circuit lines -->
  <line x1="35" y1="40" x2="50" y2="50" stroke="#3498DB" stroke-width="1.5" opacity="0.6"/>
  <line x1="65" y1="40" x2="50" y2="50" stroke="#3498DB" stroke-width="1.5" opacity="0.6"/>
  <line x1="40" y1="60" x2="50" y2="50" stroke="#3498DB" stroke-width="1.5" opacity="0.6"/>
  <line x1="60" y1="60" x2="50" y2="50" stroke="#3498DB" stroke-width="1.5" opacity="0.6"/>
  
  <!-- Digital effect -->
  <rect x="25" y="78" width="4" height="8" fill="#2ECC71" opacity="0.7"/>
  <rect x="32" y="82" width="4" height="4" fill="#2ECC71" opacity="0.7"/>
  <rect x="39" y="80" width="4" height="6" fill="#2ECC71" opacity="0.7"/>
  <rect x="46" y="83" width="4" height="3" fill="#2ECC71" opacity="0.7"/>
  <rect x="53" y="80" width="4" height="6" fill="#2ECC71" opacity="0.7"/>
  <rect x="60" y="82" width="4" height="4" fill="#2ECC71" opacity="0.7"/>
  <rect x="67" y="78" width="4" height="8" fill="#2ECC71" opacity="0.7"/>
</svg>
